{"title":"Prince of Persia 2010 Tsrip Hindi Dubbed@Mastitorrents","uid":5601293,"size":405382384,"categoryP":"video","categoryS":"movies","magnet":"?xt=urn:btih:65ad015faebf1c4953c985dc021d877952baf16b&amp;dn=Prince+of+Persia+2010+Tsrip+Hindi+Dubbed%40Mastitorrents&amp;tr=udp%3A%2F%2Ftracker.openbittorrent.com%3A80&amp;tr=udp%3A%2F%2Fopen.demonii.com%3A1337&amp;tr=udp%3A%2F%2Ftracker.coppersurfer.tk%3A6969&amp;tr=udp%3A%2F%2Fexodus.desync.com%3A6969","seeders":0,"leechers":1,"uploader":"amanrulz","files":3,"time":1275327005,"description":"mastitorrents.com &lt;a href=&quot;\nhttp://mastitorrents.com/forums/index.php&quot; rel=&quot;nofollow&quot; target=&quot;_NEW&quot;&gt;\nhttp://mastitorrents.com/forums/index.php&lt;/a&gt;\n\n\n\nGeneral\nComplete name                    : Prince of Persia 2010 Tsrip Hindi Dubbed\nFormat                           : MPEG-4\nFormat profile                   : Base Media\nCodec ID                         : isom\nFile size                        : 377 MiB\nDuration                         : 1h 42mn\nOverall bit rate                 : 514 Kbps\n\n\nVideo\nID                               : 1\nFormat                           : AVC\nFormat/Info                      : Advanced Video Codec\nFormat profile                   : &lt;a class=&quot;__cf_email__&quot; href=&quot;/cdn-cgi/l/email-protection&quot; data-cfemail=&quot;85cdece2edc5c9b1abb5&quot;&gt;[email&amp;#160;protected]&lt;/a&gt;&lt;script cf-hash='f9e31' type=&quot;text/javascript&quot;&gt;\n/* &lt;![CDATA[ */!function(){try{var t=&quot;currentScript&quot;in document?document.currentScript:function(){for(var t=document.getElementsByTagName(&quot;script&quot;),e=t.length;e--;)if(t[e].getAttribute(&quot;cf-hash&quot;))return t[e]}();if(t&amp;&amp;t.previousSibling){var e,r,n,i,c=t.previousSibling,a=c.getAttribute(&quot;data-cfemail&quot;);if(a){for(e=&quot;&quot;,r=parseInt(a.substr(0,2),16),n=2;a.length-n;n+=2)i=parseInt(a.substr(n,2),16)^r,e+=String.fromCharCode(i);e=document.createTextNode(e),c.parentNode.replaceChild(e,c)}}}catch(u){}}();/* ]]&gt; */&lt;/script&gt;\nFormat settings, CABAC           : Yes\nFormat settings, ReFrames        : 3 frames\nFormat_Settings_GOP              : N=1\nCodec ID                         : avc1\nCodec ID/Info                    : Advanced Video Coding\nDuration                         : 1h 42mn\nBit rate mode                    : Variable\nBit rate                         : 432 Kbps\nMaximum bit rate                 : 1 347 Kbps\nWidth                            : 592 pixels\nHeight                           : 224 pixels\nDisplay aspect ratio             : 2.643\nFrame rate mode                  : Constant\nFrame rate                       : 25.000 fps\nResolution                       : 8 bits\nColorimetry                      : 4:2:0\nScan type                        : Progressive\nBits/(Pixel*Frame)               : 0.130\nStream size                      : 316 MiB (84%)\nTitle                            : Video\n\n\nAudio\nID                               : 2\nFormat                           : AAC\nFormat/Info                      : Advanced Audio Codec\nFormat version                   : Version 4\nFormat profile                   : LC\nFormat settings, SBR             : Yes\nFormat settings, PS              : No\nCodec ID                         : 40\nDuration                         : 1h 42mn\nBit rate mode                    : Variable\nBit rate                         : 79.4 Kbps\nMaximum bit rate                 : 91.0 Kbps\nChannel(s)                       : 2 channels\nChannel positions                : Front: L R\nSampling rate                    : 44.1 KHz\nStream size                      : 58.1 MiB (15%)\nTitle                            : Hindi\nLanguage                         : Hindi","torrent":{"xt":"urn:btih:65ad015faebf1c4953c985dc021d877952baf16b","amp;dn":"Prince+of+Persia+2010+Tsrip+Hindi+Dubbed%40Mastitorrents","amp;tr":["udp%3A%2F%2Ftracker.openbittorrent.com%3A80","udp%3A%2F%2Fopen.demonii.com%3A1337","udp%3A%2F%2Ftracker.coppersurfer.tk%3A6969","udp%3A%2F%2Fexodus.desync.com%3A6969"],"infoHash":"65ad015faebf1c4953c985dc021d877952baf16b","infoHashBuffer":{"type":"Buffer","data":[101,173,1,95,174,191,28,73,83,201,133,220,2,29,135,121,82,186,241,107]},"announce":[],"urlList":[]}}